<svg width="120" height="120" viewBox="0 0 120 120" fill="none" xmlns="http://www.w3.org/2000/svg">
  <rect width="120" height="120" fill="#050508"/>
  <defs>
    <radialGradient id="cg" cx="50%" cy="50%" r="50%">
      <stop offset="0%" stop-color="#fff8e6" stop-opacity="0.95"/>
      <stop offset="25%" stop-color="#fde68a" stop-opacity="0.7"/>
      <stop offset="55%" stop-color="#f59e0b" stop-opacity="0.35"/>
      <stop offset="100%" stop-color="#f59e0b" stop-opacity="0"/>
    </radialGradient>
    <radialGradient id="ci" cx="50%" cy="50%" r="40%">
      <stop offset="0%" stop-color="#ffffff" stop-opacity="1"/>
      <stop offset="40%" stop-color="#fff1d6" stop-opacity="0.9"/>
      <stop offset="100%" stop-color="#fbbf24" stop-opacity="0"/>
    </radialGradient>
    <linearGradient id="sp" x1="0%" y1="100%" x2="50%" y2="50%">
      <stop offset="0%" stop-color="#7c3aed" stop-opacity="0"/>
      <stop offset="40%" stop-color="#7c3aed" stop-opacity="0.6"/>
      <stop offset="100%" stop-color="#a78bfa" stop-opacity="0.9"/>
    </linearGradient>
    <linearGradient id="sc" x1="100%" y1="100%" x2="50%" y2="50%">
      <stop offset="0%" stop-color="#06b6d4" stop-opacity="0"/>
      <stop offset="40%" stop-color="#06b6d4" stop-opacity="0.5"/>
      <stop offset="100%" stop-color="#67e8f9" stop-opacity="0.8"/>
    </linearGradient>
    <linearGradient id="sk" x1="0%" y1="0%" x2="50%" y2="50%">
      <stop offset="0%" stop-color="#e879f9" stop-opacity="0"/>
      <stop offset="40%" stop-color="#d946ef" stop-opacity="0.5"/>
      <stop offset="100%" stop-color="#f0abfc" stop-opacity="0.85"/>
    </linearGradient>
    <linearGradient id="sa" x1="100%" y1="0%" x2="50%" y2="50%">
      <stop offset="0%" stop-color="#f59e0b" stop-opacity="0"/>
      <stop offset="40%" stop-color="#f59e0b" stop-opacity="0.55"/>
      <stop offset="100%" stop-color="#fde68a" stop-opacity="0.9"/>
    </linearGradient>
  </defs>
  <circle cx="60" cy="60" r="28" fill="url(#cg)" opacity="0.6"/>
  <path d="M 18 102 C 28 82, 42 68, 57 61" stroke="url(#sp)" stroke-width="2.8" stroke-linecap="round" fill="none"/>
  <path d="M 12 90 C 26 76, 40 66, 56 60" stroke="url(#sp)" stroke-width="1.5" stroke-linecap="round" fill="none" opacity="0.4"/>
  <path d="M 102 102 C 92 82, 78 68, 63 61" stroke="url(#sc)" stroke-width="2.8" stroke-linecap="round" fill="none"/>
  <path d="M 108 90 C 94 76, 80 66, 64 60" stroke="url(#sc)" stroke-width="1.5" stroke-linecap="round" fill="none" opacity="0.4"/>
  <path d="M 18 18 C 28 38, 42 52, 57 59" stroke="url(#sk)" stroke-width="2.8" stroke-linecap="round" fill="none"/>
  <path d="M 12 30 C 26 44, 40 54, 56 60" stroke="url(#sk)" stroke-width="1.5" stroke-linecap="round" fill="none" opacity="0.4"/>
  <path d="M 102 18 C 92 38, 78 52, 63 59" stroke="url(#sa)" stroke-width="2.8" stroke-linecap="round" fill="none"/>
  <path d="M 108 30 C 94 44, 80 54, 64 60" stroke="url(#sa)" stroke-width="1.5" stroke-linecap="round" fill="none" opacity="0.4"/>
  <circle cx="60" cy="60" r="14" fill="url(#cg)"/>
  <circle cx="60" cy="60" r="7" fill="url(#ci)"/>
  <circle cx="60" cy="60" r="3.5" fill="white" opacity="0.95"/>
</svg>
